# xmcd CD database file
#
# Track frame offsets:
#	150
#	14143
#	31352
#	56153
#	74444
#	90759
#	107877
#
# Disc length: 1741 seconds
#
# Revision: 0
# Processed by: cddbd v1.5.2PL0 Copyright (c) Steve Scherf et al.
# Submitted via: CDex 1.97
#
DISCID=5b06cb07
DTITLE=Norah Jones - Begin Again
DYEAR=2019
DGENRE=Jazz
TTITLE0=My Heart Is Full
TTITLE1=Begin Again
TTITLE2=It Was You
TTITLE3=A Song With No Name
TTITLE4=Uh Oh
TTITLE5=Wintertime
TTITLE6=Just A Little Bit
EXTD=YEAR: 2019
EXTT0=
EXTT1=
EXTT2=
EXTT3=
EXTT4=
EXTT5=
EXTT6=
PLAYORDER=
